<svg width="60" height="60" viewBox="0 0 60 60" fill="none" xmlns="http://www.w3.org/2000/svg">
<rect width="60" height="60" rx="8" fill="#F1F5F6"/>
<path d="M17 14V46H40.4669C44.2896 46 47.4 42.8895 47.4 39.0669C47.4 35.7952 45.1194 33.0526 42.0667 32.3269V21.7789L34.2873 14L17 14ZM18.0667 15.0667H33.5336V22.5336H41.0005V32.1576C40.8181 32.1422 40.6411 32.1337 40.4672 32.1337C36.6442 32.1337 33.5341 35.2442 33.5341 39.0669C33.5341 39.2796 33.5477 39.4896 33.5664 39.6981C33.5707 39.7466 33.5756 39.7943 33.5809 39.843C33.6039 40.0468 33.6325 40.2483 33.6727 40.4461C33.6776 40.4696 33.6834 40.4926 33.6883 40.516C33.7267 40.6964 33.7736 40.8734 33.8258 41.0484C33.8392 41.0921 33.8515 41.1363 33.8653 41.1796C33.9256 41.3673 33.9932 41.5519 34.0684 41.7327C34.0829 41.7669 34.0988 41.8002 34.1133 41.8339C34.182 41.9917 34.2562 42.1459 34.3363 42.2975C34.3555 42.3336 34.3738 42.3707 34.3937 42.4068C34.487 42.5758 34.5874 42.7401 34.6948 42.9006C34.7193 42.9374 34.7448 42.9727 34.7698 43.0089C34.8673 43.1497 34.9698 43.2865 35.0771 43.4193C35.0974 43.4443 35.1166 43.4714 35.1376 43.4964C35.2608 43.6446 35.3901 43.7863 35.5251 43.9234C35.5582 43.9571 35.5921 43.9892 35.6262 44.0223C35.7568 44.1497 35.8912 44.2731 36.0314 44.3899C36.0436 44.4006 36.055 44.412 36.0678 44.4223C36.2182 44.5459 36.3753 44.6618 36.5365 44.7734C36.5753 44.8006 36.6148 44.8265 36.6541 44.8526C36.6952 44.8787 36.7349 44.9077 36.776 44.9339H18.068V15.067L18.0667 15.0667ZM34.5999 15.8207L40.2457 21.4667H34.5999V15.8207ZM22.8667 21.4667C22.5723 21.4667 22.3335 21.7056 22.3335 22C22.3335 22.2944 22.5723 22.5333 22.8667 22.5333H28.2C28.4944 22.5333 28.7333 22.2944 28.7333 22C28.7333 21.7056 28.4944 21.4667 28.2 21.4667H22.8667ZM22.8667 25.7335C22.5723 25.7335 22.3335 25.9723 22.3335 26.2667C22.3335 26.5612 22.5723 26.8 22.8667 26.8H36.1999C36.4943 26.8 36.7331 26.5612 36.7331 26.2667C36.7331 25.9723 36.4943 25.7335 36.1999 25.7335H22.8667ZM22.8667 30.0002C22.5723 30.0002 22.3335 30.2391 22.3335 30.5335C22.3335 30.8279 22.5723 31.0667 22.8667 31.0667H36.1999C36.4943 31.0667 36.7331 30.8279 36.7331 30.5335C36.7331 30.2388 36.4943 30 36.1999 30L22.8667 30.0002ZM40.4667 33.2002C40.633 33.2002 40.7973 33.2114 40.9605 33.2252C41.1156 33.2402 41.2768 33.2605 41.446 33.2888L41.6815 33.3284C44.3348 33.89 46.3335 36.2486 46.3335 39.0672C46.3335 42.3018 43.7015 44.9341 40.4666 44.9341C37.2318 44.9336 34.5998 42.3017 34.5998 39.0672C34.5998 35.8324 37.2318 33.2002 40.4667 33.2002ZM22.8667 34.267C22.5723 34.267 22.3335 34.5058 22.3335 34.8002C22.3335 35.0946 22.5723 35.3335 22.8667 35.3335H31.9336C32.228 35.3335 32.4669 35.0946 32.4669 34.8002C32.4669 34.5058 32.228 34.267 31.9336 34.267H22.8667ZM38.2045 36.2701C38.0681 36.2701 37.9317 36.3232 37.8274 36.4275C37.619 36.636 37.619 36.973 37.8274 37.1817L39.7129 39.0672L37.8274 40.9527C37.619 41.1612 37.619 41.4982 37.8274 41.7069C37.9315 41.8109 38.0681 41.8632 38.2045 41.8632C38.3411 41.8632 38.4774 41.8109 38.5815 41.7069L40.467 39.8214L42.3524 41.7069C42.4565 41.8109 42.5931 41.8632 42.7295 41.8632C42.8661 41.8632 43.0024 41.8109 43.1065 41.7069C43.3149 41.4984 43.3149 41.1614 43.1065 40.9527L41.221 39.0672L43.1065 37.1817C43.3145 36.9737 43.3145 36.6362 43.1065 36.4275C42.898 36.219 42.5609 36.219 42.3522 36.4275L40.4667 38.313L38.5813 36.4275C38.4772 36.3228 38.3408 36.2701 38.2045 36.2701ZM22.8667 38.5337C22.5723 38.5337 22.3335 38.7726 22.3335 39.067C22.3335 39.3614 22.5723 39.6002 22.8667 39.6002H30.3336C30.628 39.6002 30.8669 39.3614 30.8669 39.067C30.8669 38.7726 30.628 38.5337 30.3336 38.5337H22.8667Z" fill="#228B22"/>
<ellipse cx="40" cy="38.5" rx="5" ry="4.5" fill="#228B22"/>
<path d="M40.5 33C37.4627 33 35 35.4627 35 38.5C35 41.5373 37.4627 44 40.5 44C43.5373 44 46 41.5373 46 38.5C46 35.4627 43.5373 33 40.5 33ZM43.2295 37.3097L39.9254 40.6138C39.8022 40.737 39.6381 40.7985 39.4739 40.7985C39.2892 40.7985 39.125 40.737 39.0019 40.6138L37.7911 39.403C37.668 39.2799 37.6064 39.1157 37.6064 38.9515C37.6064 38.7668 37.668 38.6232 37.7911 38.5C38.0374 38.2538 38.4478 38.2538 38.7146 38.5L39.474 39.2594L42.3266 36.4068C42.4497 36.2837 42.6139 36.2221 42.7781 36.2221C42.9422 36.2221 43.1064 36.2837 43.2295 36.4068C43.3527 36.5299 43.4143 36.6941 43.4143 36.8583C43.4143 37.0225 43.3526 37.1866 43.2295 37.3097Z" fill="#F1F5F6"/>
</svg>
