<svg width="60" height="60" viewBox="0 0 60 60" fill="none" xmlns="http://www.w3.org/2000/svg">
<rect width="60" height="60" rx="8" fill="#F1F5F6"/>
<mask id="path-2-inside-1_2464_4218" fill="white">
<path d="M44.171 21.218C44.1616 21.0501 44.0965 20.891 43.9872 20.769L38.7519 15.2043C38.6246 15.0811 38.4609 15.0092 38.2888 15.0003H20.0362C19.5061 14.9908 18.994 15.205 18.6123 15.5963C18.2305 15.9876 18.0103 16.5236 18 17.0873V44.9127C18.0103 45.4764 18.2305 46.0123 18.6123 46.4037C18.994 46.795 19.5061 47.0092 20.0362 46.9997H42.1428C42.6729 47.0092 43.185 46.795 43.5667 46.4037C43.9485 46.0124 44.1687 45.4764 44.179 44.9127C44.1709 44.8697 44.1948 21.2546 44.1709 21.2176L44.171 21.218ZM38.9434 17.3751L41.9448 20.5654H38.9434V17.3751ZM42.1429 45.6085H20.0363C19.6552 45.6283 19.3307 45.3176 19.309 44.9127V17.0873C19.3307 16.6824 19.6552 16.3717 20.0363 16.3915H37.6343V21.2611C37.6343 21.4456 37.7031 21.6224 37.8258 21.7531C37.9488 21.8835 38.1151 21.9566 38.2886 21.9566H42.8701V44.913C42.8484 45.3178 42.5238 45.6285 42.1427 45.6087L42.1429 45.6085ZM30.4352 37.9566H26.5084V33.7827C26.5084 33.5982 26.4396 33.4212 26.3168 33.2907C26.1939 33.1603 26.0276 33.0869 25.854 33.0869C18.9085 33.3925 18.9096 43.9122 25.854 44.2175C27.242 44.2156 28.573 43.6289 29.5545 42.5854C30.536 41.5422 31.0883 40.1277 31.0898 38.6522C31.0898 38.4677 31.0207 38.2909 30.898 38.1602C30.7753 38.0298 30.6088 37.9567 30.4352 37.9567L30.4352 37.9566ZM25.8538 42.8262C21.0484 42.7074 20.5208 35.4789 25.1993 34.5362L25.1995 38.6519C25.1995 38.8363 25.2685 39.0134 25.3912 39.1438C25.5139 39.2742 25.6805 39.3476 25.854 39.3476H29.7263H29.7261C29.5703 40.3196 29.0961 41.2019 28.3876 41.8382C27.679 42.4748 26.7816 42.8246 25.854 42.8257L25.8538 42.8262ZM27.8172 31.6956H27.8175C27.4559 31.6956 27.1629 32.007 27.1629 32.3911V36.565C27.1629 36.7495 27.2319 36.9265 27.3547 37.0569C27.4774 37.1873 27.6439 37.2607 27.8175 37.2607H31.7443C31.9179 37.2607 32.0842 37.1873 32.2071 37.0569C32.3299 36.9265 32.3987 36.7495 32.3987 36.565C32.3973 35.2739 31.9142 34.0362 31.0554 33.1234C30.1966 32.2105 29.0322 31.697 27.8175 31.6956H27.8172ZM28.4718 35.8695V33.1567C29.1 33.2944 29.6766 33.6246 30.1302 34.1068C30.5838 34.5889 30.8945 35.2017 31.024 35.8695H28.4718ZM20.6181 24.0431C20.6181 23.659 20.9113 23.3476 21.2726 23.3476H35.6713C36.0327 23.3476 36.3256 23.659 36.3256 24.0431C36.3256 24.4274 36.0327 24.7388 35.6713 24.7388H21.2726C20.9113 24.7388 20.6181 24.4274 20.6181 24.0431ZM41.5612 26.8258H41.5614C41.5614 27.0102 41.4924 27.1872 41.3697 27.3177C41.2469 27.4481 41.0804 27.5215 40.9068 27.5215H21.2725C20.9111 27.5215 20.6179 27.2098 20.6179 26.8258C20.6179 26.4417 20.9111 26.13 21.2725 26.13H40.9068C41.0804 26.13 41.2469 26.2034 41.3697 26.3338C41.4924 26.4643 41.5614 26.6413 41.5614 26.8258H41.5612ZM41.5612 29.6084H41.5614C41.5614 29.7929 41.4924 29.9697 41.3697 30.1003C41.2469 30.2308 41.0804 30.3039 40.9068 30.3039H21.2725C20.9111 30.3039 20.6179 29.9925 20.6179 29.6084C20.6179 29.2241 20.9111 28.9127 21.2725 28.9127H40.9068C41.0804 28.9127 41.2469 28.9861 41.3697 29.1165C41.4924 29.2469 41.5614 29.424 41.5614 29.6084L41.5612 29.6084ZM21.2727 21.9559H35.6714C35.845 21.9559 36.0113 21.8828 36.1342 21.7523C36.257 21.6217 36.3258 21.4449 36.3258 21.2604V18.4777C36.3258 18.2933 36.257 18.1163 36.1342 17.9858C36.0113 17.8554 35.845 17.782 35.6714 17.782H21.2727C20.9114 17.782 20.6182 18.0937 20.6182 18.4777V21.2604C20.6182 21.4449 20.6872 21.6217 20.8099 21.7523C20.9326 21.8828 21.0992 21.9559 21.2727 21.9559ZM21.9273 19.1732L35.0167 19.1735V20.5647H21.9273V19.1732ZM40.907 38.6516H38.9435V35.1734C38.9435 34.9889 38.8745 34.8119 38.7518 34.6815C38.6291 34.5511 38.4625 34.4777 38.289 34.4777H35.6712C35.3096 34.4777 35.0167 34.7893 35.0167 35.1734V37.2603H33.0532C32.6919 37.2603 32.3987 37.5718 32.3987 37.9561V43.5212C32.3987 43.7056 32.4677 43.8827 32.5904 44.0131C32.7131 44.1435 32.8797 44.2169 33.0532 44.2169C34.3586 44.2157 36.984 44.2178 38.289 44.2169H40.907C41.0805 44.2169 41.2471 44.1435 41.3698 44.0131C41.4925 43.8827 41.5615 43.7056 41.5615 43.5212V39.3473C41.5615 39.1628 41.4925 38.9858 41.3698 38.8554C41.2471 38.7249 41.0805 38.6516 40.907 38.6516ZM33.7079 38.6516H35.0168V42.8254H33.7079V38.6516ZM36.3259 37.9558L36.3256 35.8691H37.6345L37.6348 42.8252H36.3256L36.3259 37.9558ZM40.2527 42.8254H38.9436V40.043H40.2525L40.2527 42.8254Z"/>
</mask>
<path d="M44.171 21.218C44.1616 21.0501 44.0965 20.891 43.9872 20.769L38.7519 15.2043C38.6246 15.0811 38.4609 15.0092 38.2888 15.0003H20.0362C19.5061 14.9908 18.994 15.205 18.6123 15.5963C18.2305 15.9876 18.0103 16.5236 18 17.0873V44.9127C18.0103 45.4764 18.2305 46.0123 18.6123 46.4037C18.994 46.795 19.5061 47.0092 20.0362 46.9997H42.1428C42.6729 47.0092 43.185 46.795 43.5667 46.4037C43.9485 46.0124 44.1687 45.4764 44.179 44.9127C44.1709 44.8697 44.1948 21.2546 44.1709 21.2176L44.171 21.218ZM38.9434 17.3751L41.9448 20.5654H38.9434V17.3751ZM42.1429 45.6085H20.0363C19.6552 45.6283 19.3307 45.3176 19.309 44.9127V17.0873C19.3307 16.6824 19.6552 16.3717 20.0363 16.3915H37.6343V21.2611C37.6343 21.4456 37.7031 21.6224 37.8258 21.7531C37.9488 21.8835 38.1151 21.9566 38.2886 21.9566H42.8701V44.913C42.8484 45.3178 42.5238 45.6285 42.1427 45.6087L42.1429 45.6085ZM30.4352 37.9566H26.5084V33.7827C26.5084 33.5982 26.4396 33.4212 26.3168 33.2907C26.1939 33.1603 26.0276 33.0869 25.854 33.0869C18.9085 33.3925 18.9096 43.9122 25.854 44.2175C27.242 44.2156 28.573 43.6289 29.5545 42.5854C30.536 41.5422 31.0883 40.1277 31.0898 38.6522C31.0898 38.4677 31.0207 38.2909 30.898 38.1602C30.7753 38.0298 30.6088 37.9567 30.4352 37.9567L30.4352 37.9566ZM25.8538 42.8262C21.0484 42.7074 20.5208 35.4789 25.1993 34.5362L25.1995 38.6519C25.1995 38.8363 25.2685 39.0134 25.3912 39.1438C25.5139 39.2742 25.6805 39.3476 25.854 39.3476H29.7263H29.7261C29.5703 40.3196 29.0961 41.2019 28.3876 41.8382C27.679 42.4748 26.7816 42.8246 25.854 42.8257L25.8538 42.8262ZM27.8172 31.6956H27.8175C27.4559 31.6956 27.1629 32.007 27.1629 32.3911V36.565C27.1629 36.7495 27.2319 36.9265 27.3547 37.0569C27.4774 37.1873 27.6439 37.2607 27.8175 37.2607H31.7443C31.9179 37.2607 32.0842 37.1873 32.2071 37.0569C32.3299 36.9265 32.3987 36.7495 32.3987 36.565C32.3973 35.2739 31.9142 34.0362 31.0554 33.1234C30.1966 32.2105 29.0322 31.697 27.8175 31.6956H27.8172ZM28.4718 35.8695V33.1567C29.1 33.2944 29.6766 33.6246 30.1302 34.1068C30.5838 34.5889 30.8945 35.2017 31.024 35.8695H28.4718ZM20.6181 24.0431C20.6181 23.659 20.9113 23.3476 21.2726 23.3476H35.6713C36.0327 23.3476 36.3256 23.659 36.3256 24.0431C36.3256 24.4274 36.0327 24.7388 35.6713 24.7388H21.2726C20.9113 24.7388 20.6181 24.4274 20.6181 24.0431ZM41.5612 26.8258H41.5614C41.5614 27.0102 41.4924 27.1872 41.3697 27.3177C41.2469 27.4481 41.0804 27.5215 40.9068 27.5215H21.2725C20.9111 27.5215 20.6179 27.2098 20.6179 26.8258C20.6179 26.4417 20.9111 26.13 21.2725 26.13H40.9068C41.0804 26.13 41.2469 26.2034 41.3697 26.3338C41.4924 26.4643 41.5614 26.6413 41.5614 26.8258H41.5612ZM41.5612 29.6084H41.5614C41.5614 29.7929 41.4924 29.9697 41.3697 30.1003C41.2469 30.2308 41.0804 30.3039 40.9068 30.3039H21.2725C20.9111 30.3039 20.6179 29.9925 20.6179 29.6084C20.6179 29.2241 20.9111 28.9127 21.2725 28.9127H40.9068C41.0804 28.9127 41.2469 28.9861 41.3697 29.1165C41.4924 29.2469 41.5614 29.424 41.5614 29.6084L41.5612 29.6084ZM21.2727 21.9559H35.6714C35.845 21.9559 36.0113 21.8828 36.1342 21.7523C36.257 21.6217 36.3258 21.4449 36.3258 21.2604V18.4777C36.3258 18.2933 36.257 18.1163 36.1342 17.9858C36.0113 17.8554 35.845 17.782 35.6714 17.782H21.2727C20.9114 17.782 20.6182 18.0937 20.6182 18.4777V21.2604C20.6182 21.4449 20.6872 21.6217 20.8099 21.7523C20.9326 21.8828 21.0992 21.9559 21.2727 21.9559ZM21.9273 19.1732L35.0167 19.1735V20.5647H21.9273V19.1732ZM40.907 38.6516H38.9435V35.1734C38.9435 34.9889 38.8745 34.8119 38.7518 34.6815C38.6291 34.5511 38.4625 34.4777 38.289 34.4777H35.6712C35.3096 34.4777 35.0167 34.7893 35.0167 35.1734V37.2603H33.0532C32.6919 37.2603 32.3987 37.5718 32.3987 37.9561V43.5212C32.3987 43.7056 32.4677 43.8827 32.5904 44.0131C32.7131 44.1435 32.8797 44.2169 33.0532 44.2169C34.3586 44.2157 36.984 44.2178 38.289 44.2169H40.907C41.0805 44.2169 41.2471 44.1435 41.3698 44.0131C41.4925 43.8827 41.5615 43.7056 41.5615 43.5212V39.3473C41.5615 39.1628 41.4925 38.9858 41.3698 38.8554C41.2471 38.7249 41.0805 38.6516 40.907 38.6516ZM33.7079 38.6516H35.0168V42.8254H33.7079V38.6516ZM36.3259 37.9558L36.3256 35.8691H37.6345L37.6348 42.8252H36.3256L36.3259 37.9558ZM40.2527 42.8254H38.9436V40.043H40.2525L40.2527 42.8254Z" fill="#228B22" stroke="#F1F5F6" stroke-width="0.4" mask="url(#path-2-inside-1_2464_4218)"/>
<circle cx="41.5" cy="40.5" r="6" fill="#228B22" stroke="#228B22"/>
<path d="M41.5 35C38.4627 35 36 37.4627 36 40.5C36 43.5373 38.4627 46 41.5 46C44.5373 46 47 43.5373 47 40.5C47 37.4627 44.5373 35 41.5 35ZM44.2295 39.3097L40.9254 42.6138C40.8022 42.737 40.6381 42.7985 40.4739 42.7985C40.2892 42.7985 40.125 42.737 40.0019 42.6138L38.7911 41.403C38.668 41.2799 38.6064 41.1157 38.6064 40.9515C38.6064 40.7668 38.668 40.6232 38.7911 40.5C39.0374 40.2538 39.4478 40.2538 39.7146 40.5L40.474 41.2594L43.3266 38.4068C43.4497 38.2837 43.6139 38.2221 43.7781 38.2221C43.9422 38.2221 44.1064 38.2837 44.2295 38.4068C44.3527 38.5299 44.4143 38.6941 44.4143 38.8583C44.4143 39.0225 44.3526 39.1866 44.2295 39.3097Z" fill="white"/>
</svg>
