<svg width="60" height="60" viewBox="0 0 60 60" fill="none" xmlns="http://www.w3.org/2000/svg">
<rect width="60" height="60" rx="8" fill="#F1F5F6"/>
<circle cx="41.5" cy="39.5" r="6.5" fill="#F1F5F6"/>
<mask id="path-3-inside-1_2464_4231" fill="white">
<path d="M41.171 19.218C41.1616 19.0501 41.0965 18.891 40.9872 18.769L35.7519 13.2043C35.6246 13.0811 35.4609 13.0092 35.2888 13.0003H17.0362C16.5061 12.9908 15.994 13.205 15.6123 13.5963C15.2305 13.9876 15.0103 14.5236 15 15.0873V42.9127C15.0103 43.4764 15.2305 44.0123 15.6123 44.4037C15.994 44.795 16.5061 45.0092 17.0362 44.9997H39.1428C39.6729 45.0092 40.185 44.795 40.5667 44.4037C40.9485 44.0124 41.1687 43.4764 41.179 42.9127C41.1709 42.8697 41.1948 19.2546 41.1709 19.2176L41.171 19.218ZM35.9434 15.3751L38.9448 18.5654H35.9434V15.3751ZM39.1429 43.6085H17.0363C16.6552 43.6283 16.3307 43.3176 16.309 42.9127V15.0873C16.3307 14.6824 16.6552 14.3717 17.0363 14.3915H34.6343V19.2611C34.6343 19.4456 34.7031 19.6224 34.8258 19.7531C34.9488 19.8835 35.1151 19.9566 35.2886 19.9566H39.8701V42.913C39.8484 43.3178 39.5238 43.6285 39.1427 43.6087L39.1429 43.6085ZM27.4352 35.9566H23.5084V31.7827C23.5084 31.5982 23.4396 31.4212 23.3168 31.2907C23.1939 31.1603 23.0276 31.0869 22.854 31.0869C15.9085 31.3925 15.9096 41.9122 22.854 42.2175C24.242 42.2156 25.573 41.6289 26.5545 40.5854C27.536 39.5422 28.0883 38.1277 28.0898 36.6522C28.0898 36.4677 28.0207 36.2909 27.898 36.1602C27.7753 36.0298 27.6088 35.9567 27.4352 35.9567L27.4352 35.9566ZM22.8538 40.8262C18.0484 40.7074 17.5208 33.4789 22.1993 32.5362L22.1995 36.6519C22.1995 36.8363 22.2685 37.0134 22.3912 37.1438C22.5139 37.2742 22.6805 37.3476 22.854 37.3476H26.7263H26.7261C26.5703 38.3196 26.0961 39.2019 25.3876 39.8382C24.679 40.4748 23.7816 40.8246 22.854 40.8257L22.8538 40.8262ZM24.8172 29.6956H24.8175C24.4559 29.6956 24.1629 30.007 24.1629 30.3911V34.565C24.1629 34.7495 24.2319 34.9265 24.3547 35.0569C24.4774 35.1873 24.6439 35.2607 24.8175 35.2607H28.7443C28.9179 35.2607 29.0842 35.1873 29.2071 35.0569C29.3299 34.9265 29.3987 34.7495 29.3987 34.565C29.3973 33.2739 28.9142 32.0362 28.0554 31.1234C27.1966 30.2105 26.0322 29.697 24.8175 29.6956H24.8172ZM25.4718 33.8695V31.1567C26.1 31.2944 26.6766 31.6246 27.1302 32.1068C27.5838 32.5889 27.8945 33.2017 28.024 33.8695H25.4718ZM17.6181 22.0431C17.6181 21.659 17.9113 21.3476 18.2726 21.3476H32.6713C33.0327 21.3476 33.3256 21.659 33.3256 22.0431C33.3256 22.4274 33.0327 22.7388 32.6713 22.7388H18.2726C17.9113 22.7388 17.6181 22.4274 17.6181 22.0431ZM38.5612 24.8258H38.5614C38.5614 25.0102 38.4924 25.1872 38.3697 25.3177C38.2469 25.4481 38.0804 25.5215 37.9068 25.5215H18.2725C17.9111 25.5215 17.6179 25.2098 17.6179 24.8258C17.6179 24.4417 17.9111 24.13 18.2725 24.13H37.9068C38.0804 24.13 38.2469 24.2034 38.3697 24.3338C38.4924 24.4643 38.5614 24.6413 38.5614 24.8258H38.5612ZM38.5612 27.6084H38.5614C38.5614 27.7929 38.4924 27.9697 38.3697 28.1003C38.2469 28.2308 38.0804 28.3039 37.9068 28.3039H18.2725C17.9111 28.3039 17.6179 27.9925 17.6179 27.6084C17.6179 27.2241 17.9111 26.9127 18.2725 26.9127H37.9068C38.0804 26.9127 38.2469 26.9861 38.3697 27.1165C38.4924 27.2469 38.5614 27.424 38.5614 27.6084L38.5612 27.6084ZM18.2727 19.9559H32.6714C32.845 19.9559 33.0113 19.8828 33.1342 19.7523C33.257 19.6217 33.3258 19.4449 33.3258 19.2604V16.4777C33.3258 16.2933 33.257 16.1163 33.1342 15.9858C33.0113 15.8554 32.845 15.782 32.6714 15.782H18.2727C17.9114 15.782 17.6182 16.0937 17.6182 16.4777V19.2604C17.6182 19.4449 17.6872 19.6217 17.8099 19.7523C17.9326 19.8828 18.0992 19.9559 18.2727 19.9559ZM18.9273 17.1732L32.0167 17.1735V18.5647H18.9273V17.1732ZM37.907 36.6516H35.9435V33.1734C35.9435 32.9889 35.8745 32.8119 35.7518 32.6815C35.6291 32.5511 35.4625 32.4777 35.289 32.4777H32.6712C32.3096 32.4777 32.0167 32.7893 32.0167 33.1734V35.2603H30.0532C29.6919 35.2603 29.3987 35.5718 29.3987 35.9561V41.5212C29.3987 41.7056 29.4677 41.8827 29.5904 42.0131C29.7131 42.1435 29.8797 42.2169 30.0532 42.2169C31.3586 42.2157 33.984 42.2178 35.289 42.2169H37.907C38.0805 42.2169 38.2471 42.1435 38.3698 42.0131C38.4925 41.8827 38.5615 41.7056 38.5615 41.5212V37.3473C38.5615 37.1628 38.4925 36.9858 38.3698 36.8554C38.2471 36.7249 38.0805 36.6516 37.907 36.6516ZM30.7079 36.6516H32.0168V40.8254H30.7079V36.6516ZM33.3259 35.9558L33.3256 33.8691H34.6345L34.6348 40.8252H33.3256L33.3259 35.9558ZM37.2527 40.8254H35.9436V38.043H37.2525L37.2527 40.8254Z"/>
</mask>
<path d="M41.171 19.218C41.1616 19.0501 41.0965 18.891 40.9872 18.769L35.7519 13.2043C35.6246 13.0811 35.4609 13.0092 35.2888 13.0003H17.0362C16.5061 12.9908 15.994 13.205 15.6123 13.5963C15.2305 13.9876 15.0103 14.5236 15 15.0873V42.9127C15.0103 43.4764 15.2305 44.0123 15.6123 44.4037C15.994 44.795 16.5061 45.0092 17.0362 44.9997H39.1428C39.6729 45.0092 40.185 44.795 40.5667 44.4037C40.9485 44.0124 41.1687 43.4764 41.179 42.9127C41.1709 42.8697 41.1948 19.2546 41.1709 19.2176L41.171 19.218ZM35.9434 15.3751L38.9448 18.5654H35.9434V15.3751ZM39.1429 43.6085H17.0363C16.6552 43.6283 16.3307 43.3176 16.309 42.9127V15.0873C16.3307 14.6824 16.6552 14.3717 17.0363 14.3915H34.6343V19.2611C34.6343 19.4456 34.7031 19.6224 34.8258 19.7531C34.9488 19.8835 35.1151 19.9566 35.2886 19.9566H39.8701V42.913C39.8484 43.3178 39.5238 43.6285 39.1427 43.6087L39.1429 43.6085ZM27.4352 35.9566H23.5084V31.7827C23.5084 31.5982 23.4396 31.4212 23.3168 31.2907C23.1939 31.1603 23.0276 31.0869 22.854 31.0869C15.9085 31.3925 15.9096 41.9122 22.854 42.2175C24.242 42.2156 25.573 41.6289 26.5545 40.5854C27.536 39.5422 28.0883 38.1277 28.0898 36.6522C28.0898 36.4677 28.0207 36.2909 27.898 36.1602C27.7753 36.0298 27.6088 35.9567 27.4352 35.9567L27.4352 35.9566ZM22.8538 40.8262C18.0484 40.7074 17.5208 33.4789 22.1993 32.5362L22.1995 36.6519C22.1995 36.8363 22.2685 37.0134 22.3912 37.1438C22.5139 37.2742 22.6805 37.3476 22.854 37.3476H26.7263H26.7261C26.5703 38.3196 26.0961 39.2019 25.3876 39.8382C24.679 40.4748 23.7816 40.8246 22.854 40.8257L22.8538 40.8262ZM24.8172 29.6956H24.8175C24.4559 29.6956 24.1629 30.007 24.1629 30.3911V34.565C24.1629 34.7495 24.2319 34.9265 24.3547 35.0569C24.4774 35.1873 24.6439 35.2607 24.8175 35.2607H28.7443C28.9179 35.2607 29.0842 35.1873 29.2071 35.0569C29.3299 34.9265 29.3987 34.7495 29.3987 34.565C29.3973 33.2739 28.9142 32.0362 28.0554 31.1234C27.1966 30.2105 26.0322 29.697 24.8175 29.6956H24.8172ZM25.4718 33.8695V31.1567C26.1 31.2944 26.6766 31.6246 27.1302 32.1068C27.5838 32.5889 27.8945 33.2017 28.024 33.8695H25.4718ZM17.6181 22.0431C17.6181 21.659 17.9113 21.3476 18.2726 21.3476H32.6713C33.0327 21.3476 33.3256 21.659 33.3256 22.0431C33.3256 22.4274 33.0327 22.7388 32.6713 22.7388H18.2726C17.9113 22.7388 17.6181 22.4274 17.6181 22.0431ZM38.5612 24.8258H38.5614C38.5614 25.0102 38.4924 25.1872 38.3697 25.3177C38.2469 25.4481 38.0804 25.5215 37.9068 25.5215H18.2725C17.9111 25.5215 17.6179 25.2098 17.6179 24.8258C17.6179 24.4417 17.9111 24.13 18.2725 24.13H37.9068C38.0804 24.13 38.2469 24.2034 38.3697 24.3338C38.4924 24.4643 38.5614 24.6413 38.5614 24.8258H38.5612ZM38.5612 27.6084H38.5614C38.5614 27.7929 38.4924 27.9697 38.3697 28.1003C38.2469 28.2308 38.0804 28.3039 37.9068 28.3039H18.2725C17.9111 28.3039 17.6179 27.9925 17.6179 27.6084C17.6179 27.2241 17.9111 26.9127 18.2725 26.9127H37.9068C38.0804 26.9127 38.2469 26.9861 38.3697 27.1165C38.4924 27.2469 38.5614 27.424 38.5614 27.6084L38.5612 27.6084ZM18.2727 19.9559H32.6714C32.845 19.9559 33.0113 19.8828 33.1342 19.7523C33.257 19.6217 33.3258 19.4449 33.3258 19.2604V16.4777C33.3258 16.2933 33.257 16.1163 33.1342 15.9858C33.0113 15.8554 32.845 15.782 32.6714 15.782H18.2727C17.9114 15.782 17.6182 16.0937 17.6182 16.4777V19.2604C17.6182 19.4449 17.6872 19.6217 17.8099 19.7523C17.9326 19.8828 18.0992 19.9559 18.2727 19.9559ZM18.9273 17.1732L32.0167 17.1735V18.5647H18.9273V17.1732ZM37.907 36.6516H35.9435V33.1734C35.9435 32.9889 35.8745 32.8119 35.7518 32.6815C35.6291 32.5511 35.4625 32.4777 35.289 32.4777H32.6712C32.3096 32.4777 32.0167 32.7893 32.0167 33.1734V35.2603H30.0532C29.6919 35.2603 29.3987 35.5718 29.3987 35.9561V41.5212C29.3987 41.7056 29.4677 41.8827 29.5904 42.0131C29.7131 42.1435 29.8797 42.2169 30.0532 42.2169C31.3586 42.2157 33.984 42.2178 35.289 42.2169H37.907C38.0805 42.2169 38.2471 42.1435 38.3698 42.0131C38.4925 41.8827 38.5615 41.7056 38.5615 41.5212V37.3473C38.5615 37.1628 38.4925 36.9858 38.3698 36.8554C38.2471 36.7249 38.0805 36.6516 37.907 36.6516ZM30.7079 36.6516H32.0168V40.8254H30.7079V36.6516ZM33.3259 35.9558L33.3256 33.8691H34.6345L34.6348 40.8252H33.3256L33.3259 35.9558ZM37.2527 40.8254H35.9436V38.043H37.2525L37.2527 40.8254Z" fill="#228B22" stroke="#F1F5F6" stroke-width="0.4" mask="url(#path-3-inside-1_2464_4231)"/>
<circle cx="38.5" cy="38.5" r="6" fill="#228B22" stroke="#228B22"/>
<path d="M38.5 33C35.4627 33 33 35.4627 33 38.5C33 41.5373 35.4627 44 38.5 44C41.5373 44 44 41.5373 44 38.5C44 35.4627 41.5373 33 38.5 33ZM41.2295 37.3097L37.9254 40.6138C37.8022 40.737 37.6381 40.7985 37.4739 40.7985C37.2892 40.7985 37.125 40.737 37.0019 40.6138L35.7911 39.403C35.668 39.2799 35.6064 39.1157 35.6064 38.9515C35.6064 38.7668 35.668 38.6232 35.7911 38.5C36.0374 38.2538 36.4478 38.2538 36.7146 38.5L37.474 39.2594L40.3266 36.4068C40.4497 36.2837 40.6139 36.2221 40.7781 36.2221C40.9422 36.2221 41.1064 36.2837 41.2295 36.4068C41.3527 36.5299 41.4143 36.6941 41.4143 36.8583C41.4143 37.0225 41.3526 37.1866 41.2295 37.3097Z" fill="white"/>
<ellipse cx="38" cy="38" rx="4" ry="3" fill="white"/>
<rect x="37.8223" y="34.4116" width="1.32178" height="6.20332" rx="0.660892" transform="rotate(-0.364344 37.8223 34.4116)" fill="#228B22"/>
<rect x="37.9941" y="41.0076" width="1.20422" height="1.20487" rx="0.60211" transform="rotate(-0.364344 37.9941 41.0076)" fill="#228B22"/>
</svg>
