<svg width="60" height="60" viewBox="0 0 60 60" fill="none" xmlns="http://www.w3.org/2000/svg">
<rect width="60" height="60" rx="8" fill="#F1F5F6"/>
<circle cx="41.5" cy="39.5" r="6.5" fill="#F1F5F6"/>
<path d="M18 15V47H41.4669C45.2896 47 48.4 43.8895 48.4 40.0669C48.4 36.7952 46.1194 34.0526 43.0667 33.3269V22.7789L35.2873 15L18 15ZM19.0667 16.0667H34.5336V23.5336H42.0005V33.1576C41.8181 33.1422 41.6411 33.1337 41.4672 33.1337C37.6442 33.1337 34.5341 36.2442 34.5341 40.0669C34.5341 40.2796 34.5477 40.4896 34.5664 40.6981C34.5707 40.7466 34.5756 40.7943 34.5809 40.843C34.6039 41.0468 34.6325 41.2483 34.6727 41.4461C34.6776 41.4696 34.6834 41.4926 34.6883 41.516C34.7267 41.6964 34.7736 41.8734 34.8258 42.0484C34.8392 42.0921 34.8515 42.1363 34.8653 42.1796C34.9256 42.3673 34.9932 42.5519 35.0684 42.7327C35.0829 42.7669 35.0988 42.8002 35.1133 42.8339C35.182 42.9917 35.2562 43.1459 35.3363 43.2975C35.3555 43.3336 35.3738 43.3707 35.3937 43.4068C35.487 43.5758 35.5874 43.7401 35.6948 43.9006C35.7193 43.9374 35.7448 43.9727 35.7698 44.0089C35.8673 44.1497 35.9698 44.2865 36.0771 44.4193C36.0974 44.4443 36.1166 44.4714 36.1376 44.4964C36.2608 44.6446 36.3901 44.7863 36.5251 44.9234C36.5582 44.9571 36.5921 44.9892 36.6262 45.0223C36.7568 45.1497 36.8912 45.2731 37.0314 45.3899C37.0436 45.4006 37.055 45.412 37.0678 45.4223C37.2182 45.5459 37.3753 45.6618 37.5365 45.7734C37.5753 45.8006 37.6148 45.8265 37.6541 45.8526C37.6952 45.8787 37.7349 45.9077 37.776 45.9339H19.068V16.067L19.0667 16.0667ZM35.5999 16.8207L41.2457 22.4667H35.5999V16.8207ZM23.8667 22.4667C23.5723 22.4667 23.3335 22.7056 23.3335 23C23.3335 23.2944 23.5723 23.5333 23.8667 23.5333H29.2C29.4944 23.5333 29.7333 23.2944 29.7333 23C29.7333 22.7056 29.4944 22.4667 29.2 22.4667H23.8667ZM23.8667 26.7335C23.5723 26.7335 23.3335 26.9723 23.3335 27.2667C23.3335 27.5612 23.5723 27.8 23.8667 27.8H37.1999C37.4943 27.8 37.7331 27.5612 37.7331 27.2667C37.7331 26.9723 37.4943 26.7335 37.1999 26.7335H23.8667ZM23.8667 31.0002C23.5723 31.0002 23.3335 31.2391 23.3335 31.5335C23.3335 31.8279 23.5723 32.0667 23.8667 32.0667H37.1999C37.4943 32.0667 37.7331 31.8279 37.7331 31.5335C37.7331 31.2388 37.4943 31 37.1999 31L23.8667 31.0002ZM41.4667 34.2002C41.633 34.2002 41.7973 34.2114 41.9605 34.2252C42.1156 34.2402 42.2768 34.2605 42.446 34.2888L42.6815 34.3284C45.3348 34.89 47.3335 37.2486 47.3335 40.0672C47.3335 43.3018 44.7015 45.9341 41.4666 45.9341C38.2318 45.9336 35.5998 43.3017 35.5998 40.0672C35.5998 36.8324 38.2318 34.2002 41.4667 34.2002ZM23.8667 35.267C23.5723 35.267 23.3335 35.5058 23.3335 35.8002C23.3335 36.0946 23.5723 36.3335 23.8667 36.3335H32.9336C33.228 36.3335 33.4669 36.0946 33.4669 35.8002C33.4669 35.5058 33.228 35.267 32.9336 35.267H23.8667ZM39.2045 37.2701C39.0681 37.2701 38.9317 37.3232 38.8274 37.4275C38.619 37.636 38.619 37.973 38.8274 38.1817L40.7129 40.0672L38.8274 41.9527C38.619 42.1612 38.619 42.4982 38.8274 42.7069C38.9315 42.8109 39.0681 42.8632 39.2045 42.8632C39.3411 42.8632 39.4774 42.8109 39.5815 42.7069L41.467 40.8214L43.3524 42.7069C43.4565 42.8109 43.5931 42.8632 43.7295 42.8632C43.8661 42.8632 44.0024 42.8109 44.1065 42.7069C44.3149 42.4984 44.3149 42.1614 44.1065 41.9527L42.221 40.0672L44.1065 38.1817C44.3145 37.9737 44.3145 37.6362 44.1065 37.4275C43.898 37.219 43.5609 37.219 43.3522 37.4275L41.4667 39.313L39.5813 37.4275C39.4772 37.3228 39.3408 37.2701 39.2045 37.2701ZM23.8667 39.5337C23.5723 39.5337 23.3335 39.7726 23.3335 40.067C23.3335 40.3614 23.5723 40.6002 23.8667 40.6002H31.3336C31.628 40.6002 31.8669 40.3614 31.8669 40.067C31.8669 39.7726 31.628 39.5337 31.3336 39.5337H23.8667Z" fill="#228B22"/>
<rect x="37.6328" y="37.4053" width="1.5" height="9.25572" rx="0.75" transform="rotate(-47.9544 37.6328 37.4053)" fill="#228B22"/>
<rect x="44.5039" y="36.1521" width="1.5" height="8.89087" rx="0.75" transform="rotate(48.4014 44.5039 36.1521)" fill="#228B22"/>
</svg>
