<svg width="60" height="60" viewBox="0 0 60 60" fill="none" xmlns="http://www.w3.org/2000/svg">
<rect width="60" height="60" rx="8" fill="#F1F5F6"/>
<mask id="path-2-inside-1_2464_4246" fill="white">
<path d="M43.171 19.218C43.1616 19.0501 43.0965 18.891 42.9872 18.769L37.7519 13.2043C37.6246 13.0811 37.4609 13.0092 37.2888 13.0003H19.0362C18.5061 12.9908 17.994 13.205 17.6123 13.5963C17.2305 13.9876 17.0103 14.5236 17 15.0873V42.9127C17.0103 43.4764 17.2305 44.0123 17.6123 44.4037C17.994 44.795 18.5061 45.0092 19.0362 44.9997H41.1428C41.6729 45.0092 42.185 44.795 42.5667 44.4037C42.9485 44.0124 43.1687 43.4764 43.179 42.9127C43.1709 42.8697 43.1948 19.2546 43.1709 19.2176L43.171 19.218ZM37.9434 15.3751L40.9448 18.5654H37.9434V15.3751ZM41.1429 43.6085H19.0363C18.6552 43.6283 18.3307 43.3176 18.309 42.9127V15.0873C18.3307 14.6824 18.6552 14.3717 19.0363 14.3915H36.6343V19.2611C36.6343 19.4456 36.7031 19.6224 36.8258 19.7531C36.9488 19.8835 37.1151 19.9566 37.2886 19.9566H41.8701V42.913C41.8484 43.3178 41.5238 43.6285 41.1427 43.6087L41.1429 43.6085ZM29.4352 35.9566H25.5084V31.7827C25.5084 31.5982 25.4396 31.4212 25.3168 31.2907C25.1939 31.1603 25.0276 31.0869 24.854 31.0869C17.9085 31.3925 17.9096 41.9122 24.854 42.2175C26.242 42.2156 27.573 41.6289 28.5545 40.5854C29.536 39.5422 30.0883 38.1277 30.0898 36.6522C30.0898 36.4677 30.0207 36.2909 29.898 36.1602C29.7753 36.0298 29.6088 35.9567 29.4352 35.9567L29.4352 35.9566ZM24.8538 40.8262C20.0484 40.7074 19.5208 33.4789 24.1993 32.5362L24.1995 36.6519C24.1995 36.8363 24.2685 37.0134 24.3912 37.1438C24.5139 37.2742 24.6805 37.3476 24.854 37.3476H28.7263H28.7261C28.5703 38.3196 28.0961 39.2019 27.3876 39.8382C26.679 40.4748 25.7816 40.8246 24.854 40.8257L24.8538 40.8262ZM26.8172 29.6956H26.8175C26.4559 29.6956 26.1629 30.007 26.1629 30.3911V34.565C26.1629 34.7495 26.2319 34.9265 26.3547 35.0569C26.4774 35.1873 26.6439 35.2607 26.8175 35.2607H30.7443C30.9179 35.2607 31.0842 35.1873 31.2071 35.0569C31.3299 34.9265 31.3987 34.7495 31.3987 34.565C31.3973 33.2739 30.9142 32.0362 30.0554 31.1234C29.1966 30.2105 28.0322 29.697 26.8175 29.6956H26.8172ZM27.4718 33.8695V31.1567C28.1 31.2944 28.6766 31.6246 29.1302 32.1068C29.5838 32.5889 29.8945 33.2017 30.024 33.8695H27.4718ZM19.6181 22.0431C19.6181 21.659 19.9113 21.3476 20.2726 21.3476H34.6713C35.0327 21.3476 35.3256 21.659 35.3256 22.0431C35.3256 22.4274 35.0327 22.7388 34.6713 22.7388H20.2726C19.9113 22.7388 19.6181 22.4274 19.6181 22.0431ZM40.5612 24.8258H40.5614C40.5614 25.0102 40.4924 25.1872 40.3697 25.3177C40.2469 25.4481 40.0804 25.5215 39.9068 25.5215H20.2725C19.9111 25.5215 19.6179 25.2098 19.6179 24.8258C19.6179 24.4417 19.9111 24.13 20.2725 24.13H39.9068C40.0804 24.13 40.2469 24.2034 40.3697 24.3338C40.4924 24.4643 40.5614 24.6413 40.5614 24.8258H40.5612ZM40.5612 27.6084H40.5614C40.5614 27.7929 40.4924 27.9697 40.3697 28.1003C40.2469 28.2308 40.0804 28.3039 39.9068 28.3039H20.2725C19.9111 28.3039 19.6179 27.9925 19.6179 27.6084C19.6179 27.2241 19.9111 26.9127 20.2725 26.9127H39.9068C40.0804 26.9127 40.2469 26.9861 40.3697 27.1165C40.4924 27.2469 40.5614 27.424 40.5614 27.6084L40.5612 27.6084ZM20.2727 19.9559H34.6714C34.845 19.9559 35.0113 19.8828 35.1342 19.7523C35.257 19.6217 35.3258 19.4449 35.3258 19.2604V16.4777C35.3258 16.2933 35.257 16.1163 35.1342 15.9858C35.0113 15.8554 34.845 15.782 34.6714 15.782H20.2727C19.9114 15.782 19.6182 16.0937 19.6182 16.4777V19.2604C19.6182 19.4449 19.6872 19.6217 19.8099 19.7523C19.9326 19.8828 20.0992 19.9559 20.2727 19.9559ZM20.9273 17.1732L34.0167 17.1735V18.5647H20.9273V17.1732ZM39.907 36.6516H37.9435V33.1734C37.9435 32.9889 37.8745 32.8119 37.7518 32.6815C37.6291 32.5511 37.4625 32.4777 37.289 32.4777H34.6712C34.3096 32.4777 34.0167 32.7893 34.0167 33.1734V35.2603H32.0532C31.6919 35.2603 31.3987 35.5718 31.3987 35.9561V41.5212C31.3987 41.7056 31.4677 41.8827 31.5904 42.0131C31.7131 42.1435 31.8797 42.2169 32.0532 42.2169C33.3586 42.2157 35.984 42.2178 37.289 42.2169H39.907C40.0805 42.2169 40.2471 42.1435 40.3698 42.0131C40.4925 41.8827 40.5615 41.7056 40.5615 41.5212V37.3473C40.5615 37.1628 40.4925 36.9858 40.3698 36.8554C40.2471 36.7249 40.0805 36.6516 39.907 36.6516ZM32.7079 36.6516H34.0168V40.8254H32.7079V36.6516ZM35.3259 35.9558L35.3256 33.8691H36.6345L36.6348 40.8252H35.3256L35.3259 35.9558ZM39.2527 40.8254H37.9436V38.043H39.2525L39.2527 40.8254Z"/>
</mask>
<path d="M43.171 19.218C43.1616 19.0501 43.0965 18.891 42.9872 18.769L37.7519 13.2043C37.6246 13.0811 37.4609 13.0092 37.2888 13.0003H19.0362C18.5061 12.9908 17.994 13.205 17.6123 13.5963C17.2305 13.9876 17.0103 14.5236 17 15.0873V42.9127C17.0103 43.4764 17.2305 44.0123 17.6123 44.4037C17.994 44.795 18.5061 45.0092 19.0362 44.9997H41.1428C41.6729 45.0092 42.185 44.795 42.5667 44.4037C42.9485 44.0124 43.1687 43.4764 43.179 42.9127C43.1709 42.8697 43.1948 19.2546 43.1709 19.2176L43.171 19.218ZM37.9434 15.3751L40.9448 18.5654H37.9434V15.3751ZM41.1429 43.6085H19.0363C18.6552 43.6283 18.3307 43.3176 18.309 42.9127V15.0873C18.3307 14.6824 18.6552 14.3717 19.0363 14.3915H36.6343V19.2611C36.6343 19.4456 36.7031 19.6224 36.8258 19.7531C36.9488 19.8835 37.1151 19.9566 37.2886 19.9566H41.8701V42.913C41.8484 43.3178 41.5238 43.6285 41.1427 43.6087L41.1429 43.6085ZM29.4352 35.9566H25.5084V31.7827C25.5084 31.5982 25.4396 31.4212 25.3168 31.2907C25.1939 31.1603 25.0276 31.0869 24.854 31.0869C17.9085 31.3925 17.9096 41.9122 24.854 42.2175C26.242 42.2156 27.573 41.6289 28.5545 40.5854C29.536 39.5422 30.0883 38.1277 30.0898 36.6522C30.0898 36.4677 30.0207 36.2909 29.898 36.1602C29.7753 36.0298 29.6088 35.9567 29.4352 35.9567L29.4352 35.9566ZM24.8538 40.8262C20.0484 40.7074 19.5208 33.4789 24.1993 32.5362L24.1995 36.6519C24.1995 36.8363 24.2685 37.0134 24.3912 37.1438C24.5139 37.2742 24.6805 37.3476 24.854 37.3476H28.7263H28.7261C28.5703 38.3196 28.0961 39.2019 27.3876 39.8382C26.679 40.4748 25.7816 40.8246 24.854 40.8257L24.8538 40.8262ZM26.8172 29.6956H26.8175C26.4559 29.6956 26.1629 30.007 26.1629 30.3911V34.565C26.1629 34.7495 26.2319 34.9265 26.3547 35.0569C26.4774 35.1873 26.6439 35.2607 26.8175 35.2607H30.7443C30.9179 35.2607 31.0842 35.1873 31.2071 35.0569C31.3299 34.9265 31.3987 34.7495 31.3987 34.565C31.3973 33.2739 30.9142 32.0362 30.0554 31.1234C29.1966 30.2105 28.0322 29.697 26.8175 29.6956H26.8172ZM27.4718 33.8695V31.1567C28.1 31.2944 28.6766 31.6246 29.1302 32.1068C29.5838 32.5889 29.8945 33.2017 30.024 33.8695H27.4718ZM19.6181 22.0431C19.6181 21.659 19.9113 21.3476 20.2726 21.3476H34.6713C35.0327 21.3476 35.3256 21.659 35.3256 22.0431C35.3256 22.4274 35.0327 22.7388 34.6713 22.7388H20.2726C19.9113 22.7388 19.6181 22.4274 19.6181 22.0431ZM40.5612 24.8258H40.5614C40.5614 25.0102 40.4924 25.1872 40.3697 25.3177C40.2469 25.4481 40.0804 25.5215 39.9068 25.5215H20.2725C19.9111 25.5215 19.6179 25.2098 19.6179 24.8258C19.6179 24.4417 19.9111 24.13 20.2725 24.13H39.9068C40.0804 24.13 40.2469 24.2034 40.3697 24.3338C40.4924 24.4643 40.5614 24.6413 40.5614 24.8258H40.5612ZM40.5612 27.6084H40.5614C40.5614 27.7929 40.4924 27.9697 40.3697 28.1003C40.2469 28.2308 40.0804 28.3039 39.9068 28.3039H20.2725C19.9111 28.3039 19.6179 27.9925 19.6179 27.6084C19.6179 27.2241 19.9111 26.9127 20.2725 26.9127H39.9068C40.0804 26.9127 40.2469 26.9861 40.3697 27.1165C40.4924 27.2469 40.5614 27.424 40.5614 27.6084L40.5612 27.6084ZM20.2727 19.9559H34.6714C34.845 19.9559 35.0113 19.8828 35.1342 19.7523C35.257 19.6217 35.3258 19.4449 35.3258 19.2604V16.4777C35.3258 16.2933 35.257 16.1163 35.1342 15.9858C35.0113 15.8554 34.845 15.782 34.6714 15.782H20.2727C19.9114 15.782 19.6182 16.0937 19.6182 16.4777V19.2604C19.6182 19.4449 19.6872 19.6217 19.8099 19.7523C19.9326 19.8828 20.0992 19.9559 20.2727 19.9559ZM20.9273 17.1732L34.0167 17.1735V18.5647H20.9273V17.1732ZM39.907 36.6516H37.9435V33.1734C37.9435 32.9889 37.8745 32.8119 37.7518 32.6815C37.6291 32.5511 37.4625 32.4777 37.289 32.4777H34.6712C34.3096 32.4777 34.0167 32.7893 34.0167 33.1734V35.2603H32.0532C31.6919 35.2603 31.3987 35.5718 31.3987 35.9561V41.5212C31.3987 41.7056 31.4677 41.8827 31.5904 42.0131C31.7131 42.1435 31.8797 42.2169 32.0532 42.2169C33.3586 42.2157 35.984 42.2178 37.289 42.2169H39.907C40.0805 42.2169 40.2471 42.1435 40.3698 42.0131C40.4925 41.8827 40.5615 41.7056 40.5615 41.5212V37.3473C40.5615 37.1628 40.4925 36.9858 40.3698 36.8554C40.2471 36.7249 40.0805 36.6516 39.907 36.6516ZM32.7079 36.6516H34.0168V40.8254H32.7079V36.6516ZM35.3259 35.9558L35.3256 33.8691H36.6345L36.6348 40.8252H35.3256L35.3259 35.9558ZM39.2527 40.8254H37.9436V38.043H39.2525L39.2527 40.8254Z" fill="#228B22" stroke="#F1F5F6" stroke-width="0.4" mask="url(#path-2-inside-1_2464_4246)"/>
</svg>
