<svg width="60" height="60" viewBox="0 0 60 60" fill="none" xmlns="http://www.w3.org/2000/svg">
<rect width="60" height="60" rx="8" fill="#F1F5F6"/>
<path d="M18.7272 14C18.3125 14 18.0089 14.3998 18 14.7272V45.2728C18 45.6535 18.3465 46 18.7272 46H42C42.3808 46 42.7272 45.6535 42.7272 45.2728V19.8181C42.7272 19.6246 42.6491 19.4316 42.5114 19.2954L37.4206 14.2046C37.2851 14.0737 37.0974 13.9986 36.9092 14.0001L18.7272 14ZM19.4544 15.4544H36.1818V19.818C36.1818 20.1987 36.5283 20.5452 36.909 20.5452H41.2726V44.5453H19.4543L19.4544 15.4544ZM37.6363 16.4772L40.25 19.0908H37.6363V16.4772ZM29.6363 24.1817C29.2345 24.1817 28.9091 24.5074 28.9091 24.9089C28.9091 25.3107 29.2348 25.6362 29.6363 25.6362H37.6363C38.0381 25.6362 38.3635 25.3105 38.3635 24.9089C38.3635 24.5072 38.0378 24.1817 37.6363 24.1817H29.6363ZM23.0908 29.2728C22.689 29.2728 22.3636 29.5985 22.3636 30C22.3636 30.4018 22.6893 30.7272 23.0908 30.7272H37.6363C38.0381 30.7272 38.3635 30.4015 38.3635 30C38.3635 29.5982 38.0378 29.2728 37.6363 29.2728H23.0908ZM23.0908 34.3636C22.689 34.3636 22.3636 34.6893 22.3636 35.0908C22.3636 35.4926 22.6893 35.818 23.0908 35.818H37.6363C38.0381 35.818 38.3635 35.4923 38.3635 35.0908C38.3635 34.689 38.0378 34.3636 37.6363 34.3636H23.0908ZM23.0908 39.4544C22.689 39.4544 22.3636 39.7801 22.3636 40.1816C22.3636 40.5834 22.6893 40.9088 23.0908 40.9088H37.6363C38.0381 40.9088 38.3635 40.5831 38.3635 40.1816C38.3635 39.7798 38.0378 39.4544 37.6363 39.4544H23.0908Z" fill="#228B22"/>
</svg>
